INFO:-
Vieo:-

Format                           : AVC
Format/Info                      : Advanced Video Codec
Format profile                   : High@L4.0
Format settings, CABAC           : Yes
Format settings, ReFrames        : 4 frames
Format settings, GOP             : M=1, N=30
Muxing mode                      : Header stripping
Codec ID                         : V_MPEG4/ISO/AVC
Duration                         : 3mn 47s
Bit rate                         : 5 517 Kbps
Width                            : 1 920 pixels
Height                           : 1 080 pixels
Display aspect ratio             : 16:9
Frame rate mode                  : Variable
Frame rate                       : 29.970 fps
Color space                      : YUV
Chroma subsampling               : 4:2:0
Bit depth                        : 8 bits
Scan type                        : Progressive
Bits/(Pixel*Frame)               : 0.089
Stream size                      : 146 MiB (92%)
Title                            : 1080p ~Abhinav4u~

Audio:-

Format                           : AC-3
Format/Info                      : Audio Coding 3
Mode extension                   : CM (complete main)
Muxing mode                      : Header stripping
Codec ID                         : A_AC3
Duration                         : 3mn 47s
Bit rate mode                    : Constant
Bit rate                         : 384 Kbps
Channel(s)                       : 2 channels
Channel positions                : Front: L R
Sampling rate                    : 48.0 KHz
Bit depth                        : 16 bits
Compression mode                 : Lossy
Stream size                      : 10.4 MiB (7%)
Title                            : ~Abhinav4u~
Language                         : English

Screenshots:- 
http://i.minus.com/ioMFiwJo9VYQ0.png 
http://i.minus.com/i3CzyMGJsc8Wd.png 
http://i.minus.com/iBscNuV2JH3uv.png 
http://i.minus.com/ijnxhvkXz3AUT.png 
http://i.minus.com/iGDlkrLeMw6BG.png 
http://i.minus.com/ib9zGaY56IGvh.png

Enjoy the quality..
Regards::Abhinav4u